# xmcd
#
# Track frame offsets: 
#        150
#        16626
#        30906
#        40843
#        54463
#        77172
#        93396
#        105530
#        117072
#        129664
#        149017
#        160390
#        173337
#        184387
#        191766
#        211389
#        233387
#        249176
#        260060
#        273726
#        289177
#        299997
#
# Disc length: 4347 seconds
#
# Revision: 4
# Processed by: cddbd v1.5.2PL0 Copyright (c) Steve Scherf et al.
# Submitted via: ExactAudioCopyFreeDBPlugin 1.0
#
DISCID=3e10f916
DTITLE=Nina Simone - The Greatest Hits
DYEAR=2003
DGENRE=Jazz
TTITLE0=My Baby Just Cares For Me
TTITLE1=I Wish I Knew How It Would Feel To Be Free
TTITLE2=Ain't Got No... I Got Life
TTITLE3=Nobody's Fault But Mine
TTITLE4=Mr. Bojangles
TTITLE5=Here Comes The Sun
TTITLE6=To Love Somebody
TTITLE7=I Want A Little Sugar In My Bowl
TTITLE8=Do I Move You
TTITLE9=My Man's Gone Now
TTITLE10=Backlash Blues
TTITLE11=Since I Fell For You
TTITLE12=Turn Me On
TTITLE13=Compensation
TTITLE14=Suzanne
TTITLE15=Just Like A Woman
TTITLE16=Let It Be Me
TTITLE17=In The Morning
TTITLE18=Do What You Gotta Do
TTITLE19=Save Me
TTITLE20=The Look Of Love
TTITLE21=Why? (The King Of Love Is Dead)
EXTD=YEAR: 2003
EXTT0=
EXTT1=
EXTT2=
EXTT3=
EXTT4=
EXTT5=
EXTT6=
EXTT7=
EXTT8=
EXTT9=
EXTT10=
EXTT11=
EXTT12=
EXTT13=
EXTT14=
EXTT15=
EXTT16=
EXTT17=
EXTT18=
EXTT19=
EXTT20=
EXTT21=
PLAYORDER=
